<?xml version="1.0" ?>
<!DOCTYPE svg  PUBLIC '-//W3C//DTD SVG 1.1//EN'  'http://www.w3.org/Graphics/SVG/1.1/DTD/svg11.dtd'>
<!-- Uploaded to: SVG Repo, www.svgrepo.com, Generator: SVG Repo Mixer Tools -->
<svg fill="#000000" width="800px" height="800px" viewBox="0 0 512 512" version="1.1" xml:space="preserve" xmlns="http://www.w3.org/2000/svg" xmlns:xlink="http://www.w3.org/1999/xlink">
<g id="_x36_34_x2C__Drink_x2C__fastfood_x2C__food_x2C__usa">
<g>
<g>
<g>
<g>
<path d="M406.348,260.957h-300c-5.523,0-10-4.478-10-10v-60c0-5.523,4.477-10,10-10h300c5.522,0,10,4.477,10,10v60       C416.348,256.479,411.87,260.957,406.348,260.957z M116.347,240.957h280v-40h-280V240.957z"/>
</g>
<g>
<path d="M376.348,200.957h-240c-5.523,0-10-4.477-10-10v-60c0-5.523,4.477-10,10-10h240c5.522,0,10,4.477,10,10v60       C386.348,196.479,381.87,200.957,376.348,200.957z M146.347,180.957h220v-40h-220V180.957z"/>
</g>
<g>
<path d="M276.348,230.957h-130c-5.523,0-10-4.477-10-10s4.477-10,10-10h130c5.522,0,10,4.477,10,10       S281.87,230.957,276.348,230.957z"/>
</g>
<g>
<path d="M366.348,230.957h-60c-5.522,0-10-4.477-10-10s4.478-10,10-10h60c5.522,0,10,4.477,10,10       S371.87,230.957,366.348,230.957z"/>
</g>
<g>
<path d="M236.347,170.957h-60c-5.523,0-10-4.477-10-10s4.477-10,10-10h60c5.523,0,10,4.477,10,10       S241.87,170.957,236.347,170.957z"/>
</g>
<g>
<path d="M356.348,500.956h-200c-5.201,0-9.534-3.986-9.965-9.17l-20-239.999c-0.232-2.787,0.713-5.544,2.606-7.602       c1.894-2.058,4.563-3.229,7.359-3.229h240c2.797,0,5.465,1.171,7.358,3.229c1.894,2.058,2.839,4.814,2.607,7.602l-20,239.999       C365.881,496.97,361.549,500.956,356.348,500.956z M165.548,480.956h181.598l18.333-219.999H147.215L165.548,480.956z"/>
</g>
<g>
<path d="M336.348,170.957h-60c-5.522,0-10-4.477-10-10s4.478-10,10-10h60c5.522,0,10,4.477,10,10       S341.87,170.957,336.348,170.957z"/>
</g>
<g>
<path d="M266.359,140.958c-0.546,0-1.099-0.045-1.655-0.138c-5.448-0.908-9.128-6.06-8.22-11.508l10-60       c0.526-3.156,2.53-5.87,5.393-7.3l100-50c4.937-2.472,10.945-0.468,13.416,4.472c2.47,4.94,0.468,10.947-4.473,13.417       l-95.445,47.723l-9.162,54.977C275.396,137.492,271.159,140.958,266.359,140.958z"/>
</g>
</g>
</g>
</g>
</g>
<g id="Layer_1"/>
</svg>