<?xml version="1.0" encoding="iso-8859-1"?>
<!-- Uploaded to: SVG Repo, www.svgrepo.com, Generator: SVG Repo Mixer Tools -->
<svg fill="#000000" height="800px" width="800px" version="1.1" id="Layer_1" xmlns="http://www.w3.org/2000/svg" xmlns:xlink="http://www.w3.org/1999/xlink" 
	 viewBox="0 0 512.056 512.056" xml:space="preserve">
<g>
	<g>
		<path d="M489.795,66.81H388.931l-9.683-48.84c-2.07-10.44-11.197-17.942-21.838-17.942h-90.223v89.044h22.261v133.565h-89.044
			V89.071h22.261V0.028H43.398C32.757,0.028,23.63,7.53,21.56,17.97L9.561,78.564C-3.907,147.105-3.15,216.493,11.854,284.789
			l4.185,18.989c1.336,6.099,2.783,14.692,4.118,22.684c0.868,5.187,1.714,10.129,2.471,14.113
			c6.367,34.304,32.145,61.151,66.471,70.589v56.342H44.577c-12.288,0-22.261,9.973-22.261,22.261
			c0,12.288,9.973,22.261,22.261,22.261h66.783h178.087h66.783c12.288,0,22.261-9.973,22.261-22.261
			c0-12.288-9.973-22.261-22.261-22.261h-44.522v-56.342c34.304-9.439,60.082-36.307,66.538-70.812l5.142-29.251
			c78.848-6.166,128.668-157.295,128.668-222.03C512.056,76.783,502.083,66.81,489.795,66.81z M267.186,467.506H133.621v-48.952
			c0.646,0.089,1.269,0.111,1.914,0.178c9.305,1.113,18.632,1.937,27.96,2.56c4.207,0.267,8.437,0.401,12.666,0.601
			c8.081,0.356,16.161,1.135,24.242,1.135s16.161-0.779,24.242-1.135c4.23-0.2,8.459-0.334,12.666-0.601
			c9.327-0.623,18.655-1.447,27.96-2.56c0.646-0.067,1.269-0.089,1.914-0.178V467.506z M393.316,262.105
			c8.682-50.02,9.683-100.53,3.139-150.773h69.254C457.739,165.092,424.971,242.07,393.316,262.105z"/>
	</g>
</g>
</svg>